<mxfile host="app.diagrams.net" agent="Mozilla/5.0 (Windows NT 10.0; Win64; x64) AppleWebKit/537.36 (KHTML, like Gecko) Chrome/132.0.0.0 Safari/537.36 OPR/117.0.0.0" version="26.2.13" pages="2">
  <diagram name="SELF_ATTENTION_LAYER" id="ycd4AqWMqtb6JNKQn1Xa">
    <mxGraphModel dx="1736" dy="861" grid="0" gridSize="10" guides="1" tooltips="1" connect="1" arrows="1" fold="1" page="0" pageScale="1" pageWidth="850" pageHeight="1100" math="0" shadow="0">
      <root>
        <mxCell id="0" />
        <mxCell id="1" parent="0" />
        <mxCell id="j9KJ5yuXrT_S9AdhNe95-25" value="&lt;b&gt;&lt;font style=&quot;font-size: 16px;&quot;&gt;PREDICTION LAYER&lt;/font&gt;&lt;/b&gt;" style="rounded=1;whiteSpace=wrap;html=1;dashed=1;dashPattern=8 8;labelPosition=center;verticalLabelPosition=top;align=center;verticalAlign=bottom;" parent="1" vertex="1">
          <mxGeometry x="1712" y="216" width="381" height="317" as="geometry" />
        </mxCell>
        <mxCell id="j9KJ5yuXrT_S9AdhNe95-22" value="&lt;b&gt;&lt;font style=&quot;font-size: 16px;&quot;&gt;SELF ATTENTION BLOCKS&lt;/font&gt;&lt;/b&gt;" style="rounded=1;whiteSpace=wrap;html=1;dashed=1;dashPattern=8 8;labelPosition=center;verticalLabelPosition=top;align=center;verticalAlign=bottom;" parent="1" vertex="1">
          <mxGeometry x="480" y="206" width="752" height="317" as="geometry" />
        </mxCell>
        <mxCell id="j9KJ5yuXrT_S9AdhNe95-24" value="" style="rounded=1;whiteSpace=wrap;html=1;dashed=1;dashPattern=8 8;labelPosition=center;verticalLabelPosition=top;align=center;verticalAlign=bottom;" parent="1" vertex="1">
          <mxGeometry x="473" y="210" width="752" height="317" as="geometry" />
        </mxCell>
        <mxCell id="j9KJ5yuXrT_S9AdhNe95-23" value="" style="rounded=1;whiteSpace=wrap;html=1;dashed=1;dashPattern=8 8;labelPosition=center;verticalLabelPosition=top;align=center;verticalAlign=bottom;" parent="1" vertex="1">
          <mxGeometry x="467" y="214.5" width="752" height="317" as="geometry" />
        </mxCell>
        <mxCell id="j9KJ5yuXrT_S9AdhNe95-2" value="&lt;b&gt;&lt;font style=&quot;font-size: 16px;&quot;&gt;EMBEDDING LAYER&lt;/font&gt;&lt;/b&gt;" style="rounded=1;whiteSpace=wrap;html=1;dashed=1;dashPattern=8 8;labelPosition=center;verticalLabelPosition=top;align=center;verticalAlign=bottom;" parent="1" vertex="1">
          <mxGeometry x="-207" y="219" width="650.48" height="317" as="geometry" />
        </mxCell>
        <mxCell id="rvzsoMnx6y7NhFi0UlCl-1" value="" style="rounded=1;whiteSpace=wrap;html=1;dashed=1;dashPattern=8 8;labelPosition=center;verticalLabelPosition=top;align=center;verticalAlign=bottom;" parent="1" vertex="1">
          <mxGeometry x="461" y="219" width="752" height="317" as="geometry" />
        </mxCell>
        <mxCell id="rvzsoMnx6y7NhFi0UlCl-27" value="" style="group" parent="1" vertex="1" connectable="0">
          <mxGeometry x="-29.020000000000003" y="194" width="62" height="239" as="geometry" />
        </mxCell>
        <mxCell id="rvzsoMnx6y7NhFi0UlCl-3" value="" style="shape=table;startSize=0;container=1;collapsible=0;childLayout=tableLayout;fontSize=16;" parent="rvzsoMnx6y7NhFi0UlCl-27" vertex="1">
          <mxGeometry x="9.020000000000003" y="39" width="43.952380952380906" height="200" as="geometry" />
        </mxCell>
        <mxCell id="rvzsoMnx6y7NhFi0UlCl-24" style="shape=tableRow;horizontal=0;startSize=0;swimlaneHead=0;swimlaneBody=0;strokeColor=inherit;top=0;left=0;bottom=0;right=0;collapsible=0;dropTarget=0;fillColor=none;points=[[0,0.5],[1,0.5]];portConstraint=eastwest;fontSize=16;" parent="rvzsoMnx6y7NhFi0UlCl-3" vertex="1">
          <mxGeometry width="43.952380952380906" height="40" as="geometry" />
        </mxCell>
        <mxCell id="rvzsoMnx6y7NhFi0UlCl-25" value="C&lt;sub&gt;n&lt;/sub&gt;" style="shape=partialRectangle;html=1;whiteSpace=wrap;connectable=0;strokeColor=inherit;overflow=hidden;fillColor=none;top=0;left=0;bottom=0;right=0;pointerEvents=1;fontSize=16;" parent="rvzsoMnx6y7NhFi0UlCl-24" vertex="1">
          <mxGeometry width="44" height="40" as="geometry">
            <mxRectangle width="44" height="40" as="alternateBounds" />
          </mxGeometry>
        </mxCell>
        <mxCell id="rvzsoMnx6y7NhFi0UlCl-22" style="shape=tableRow;horizontal=0;startSize=0;swimlaneHead=0;swimlaneBody=0;strokeColor=inherit;top=0;left=0;bottom=0;right=0;collapsible=0;dropTarget=0;fillColor=none;points=[[0,0.5],[1,0.5]];portConstraint=eastwest;fontSize=16;" parent="rvzsoMnx6y7NhFi0UlCl-3" vertex="1">
          <mxGeometry y="40" width="43.952380952380906" height="40" as="geometry" />
        </mxCell>
        <mxCell id="rvzsoMnx6y7NhFi0UlCl-23" value="C&lt;sub&gt;n + 1&lt;/sub&gt;" style="shape=partialRectangle;html=1;whiteSpace=wrap;connectable=0;strokeColor=inherit;overflow=hidden;fillColor=none;top=0;left=0;bottom=0;right=0;pointerEvents=1;fontSize=16;" parent="rvzsoMnx6y7NhFi0UlCl-22" vertex="1">
          <mxGeometry width="44" height="40" as="geometry">
            <mxRectangle width="44" height="40" as="alternateBounds" />
          </mxGeometry>
        </mxCell>
        <mxCell id="rvzsoMnx6y7NhFi0UlCl-4" value="" style="shape=tableRow;horizontal=0;startSize=0;swimlaneHead=0;swimlaneBody=0;strokeColor=inherit;top=0;left=0;bottom=0;right=0;collapsible=0;dropTarget=0;fillColor=none;points=[[0,0.5],[1,0.5]];portConstraint=eastwest;fontSize=16;" parent="rvzsoMnx6y7NhFi0UlCl-3" vertex="1">
          <mxGeometry y="80" width="43.952380952380906" height="40" as="geometry" />
        </mxCell>
        <mxCell id="rvzsoMnx6y7NhFi0UlCl-5" value="C&lt;sub&gt;n + 2&lt;/sub&gt;" style="shape=partialRectangle;html=1;whiteSpace=wrap;connectable=0;strokeColor=inherit;overflow=hidden;fillColor=none;top=0;left=0;bottom=0;right=0;pointerEvents=1;fontSize=16;" parent="rvzsoMnx6y7NhFi0UlCl-4" vertex="1">
          <mxGeometry width="44" height="40" as="geometry">
            <mxRectangle width="44" height="40" as="alternateBounds" />
          </mxGeometry>
        </mxCell>
        <mxCell id="rvzsoMnx6y7NhFi0UlCl-8" value="" style="shape=tableRow;horizontal=0;startSize=0;swimlaneHead=0;swimlaneBody=0;strokeColor=inherit;top=0;left=0;bottom=0;right=0;collapsible=0;dropTarget=0;fillColor=none;points=[[0,0.5],[1,0.5]];portConstraint=eastwest;fontSize=16;" parent="rvzsoMnx6y7NhFi0UlCl-3" vertex="1">
          <mxGeometry y="120" width="43.952380952380906" height="40" as="geometry" />
        </mxCell>
        <mxCell id="rvzsoMnx6y7NhFi0UlCl-9" value="..." style="shape=partialRectangle;html=1;whiteSpace=wrap;connectable=0;strokeColor=inherit;overflow=hidden;fillColor=none;top=0;left=0;bottom=0;right=0;pointerEvents=1;fontSize=16;" parent="rvzsoMnx6y7NhFi0UlCl-8" vertex="1">
          <mxGeometry width="44" height="40" as="geometry">
            <mxRectangle width="44" height="40" as="alternateBounds" />
          </mxGeometry>
        </mxCell>
        <mxCell id="rvzsoMnx6y7NhFi0UlCl-12" value="" style="shape=tableRow;horizontal=0;startSize=0;swimlaneHead=0;swimlaneBody=0;strokeColor=inherit;top=0;left=0;bottom=0;right=0;collapsible=0;dropTarget=0;fillColor=none;points=[[0,0.5],[1,0.5]];portConstraint=eastwest;fontSize=16;" parent="rvzsoMnx6y7NhFi0UlCl-3" vertex="1">
          <mxGeometry y="160" width="43.952380952380906" height="40" as="geometry" />
        </mxCell>
        <mxCell id="rvzsoMnx6y7NhFi0UlCl-13" value="Cx" style="shape=partialRectangle;html=1;whiteSpace=wrap;connectable=0;strokeColor=inherit;overflow=hidden;fillColor=none;top=0;left=0;bottom=0;right=0;pointerEvents=1;fontSize=16;" parent="rvzsoMnx6y7NhFi0UlCl-12" vertex="1">
          <mxGeometry width="44" height="40" as="geometry">
            <mxRectangle width="44" height="40" as="alternateBounds" />
          </mxGeometry>
        </mxCell>
        <mxCell id="rvzsoMnx6y7NhFi0UlCl-28" value="" style="endArrow=classic;html=1;rounded=0;exitX=1;exitY=0.5;exitDx=0;exitDy=0;entryX=0;entryY=0.5;entryDx=0;entryDy=0;" parent="1" source="rvzsoMnx6y7NhFi0UlCl-24" target="rvzsoMnx6y7NhFi0UlCl-30" edge="1">
          <mxGeometry width="50" height="50" relative="1" as="geometry">
            <mxPoint x="181" y="346" as="sourcePoint" />
            <mxPoint x="231" y="296" as="targetPoint" />
          </mxGeometry>
        </mxCell>
        <mxCell id="rvzsoMnx6y7NhFi0UlCl-29" value="" style="shape=table;startSize=0;container=1;collapsible=0;childLayout=tableLayout;fontSize=16;" parent="1" vertex="1">
          <mxGeometry x="135" y="233" width="43.952380952380906" height="40" as="geometry" />
        </mxCell>
        <mxCell id="rvzsoMnx6y7NhFi0UlCl-30" style="shape=tableRow;horizontal=0;startSize=0;swimlaneHead=0;swimlaneBody=0;strokeColor=inherit;top=0;left=0;bottom=0;right=0;collapsible=0;dropTarget=0;fillColor=none;points=[[0,0.5],[1,0.5]];portConstraint=eastwest;fontSize=16;" parent="rvzsoMnx6y7NhFi0UlCl-29" vertex="1">
          <mxGeometry width="43.952380952380906" height="40" as="geometry" />
        </mxCell>
        <mxCell id="rvzsoMnx6y7NhFi0UlCl-31" value="Cn" style="shape=partialRectangle;html=1;whiteSpace=wrap;connectable=0;strokeColor=inherit;overflow=hidden;fillColor=none;top=0;left=0;bottom=0;right=0;pointerEvents=1;fontSize=16;" parent="rvzsoMnx6y7NhFi0UlCl-30" vertex="1">
          <mxGeometry width="44" height="40" as="geometry">
            <mxRectangle width="44" height="40" as="alternateBounds" />
          </mxGeometry>
        </mxCell>
        <mxCell id="rvzsoMnx6y7NhFi0UlCl-44" value="" style="shape=table;startSize=0;container=1;collapsible=0;childLayout=tableLayout;fontSize=16;" parent="1" vertex="1">
          <mxGeometry x="135" y="327" width="43.952380952380906" height="40" as="geometry" />
        </mxCell>
        <mxCell id="rvzsoMnx6y7NhFi0UlCl-45" style="shape=tableRow;horizontal=0;startSize=0;swimlaneHead=0;swimlaneBody=0;strokeColor=inherit;top=0;left=0;bottom=0;right=0;collapsible=0;dropTarget=0;fillColor=none;points=[[0,0.5],[1,0.5]];portConstraint=eastwest;fontSize=16;" parent="rvzsoMnx6y7NhFi0UlCl-44" vertex="1">
          <mxGeometry width="43.952380952380906" height="40" as="geometry" />
        </mxCell>
        <mxCell id="rvzsoMnx6y7NhFi0UlCl-46" value="index" style="shape=partialRectangle;html=1;whiteSpace=wrap;connectable=0;strokeColor=inherit;overflow=hidden;fillColor=none;top=0;left=0;bottom=0;right=0;pointerEvents=1;fontSize=16;" parent="rvzsoMnx6y7NhFi0UlCl-45" vertex="1">
          <mxGeometry width="44" height="40" as="geometry">
            <mxRectangle width="44" height="40" as="alternateBounds" />
          </mxGeometry>
        </mxCell>
        <mxCell id="rvzsoMnx6y7NhFi0UlCl-48" value="" style="endArrow=classic;html=1;rounded=0;exitX=1;exitY=0.5;exitDx=0;exitDy=0;entryX=0;entryY=0.5;entryDx=0;entryDy=0;" parent="1" source="rvzsoMnx6y7NhFi0UlCl-24" target="rvzsoMnx6y7NhFi0UlCl-45" edge="1">
          <mxGeometry width="50" height="50" relative="1" as="geometry">
            <mxPoint x="34" y="263" as="sourcePoint" />
            <mxPoint x="145" y="263" as="targetPoint" />
          </mxGeometry>
        </mxCell>
        <mxCell id="rvzsoMnx6y7NhFi0UlCl-49" value="" style="shape=table;startSize=0;container=1;collapsible=0;childLayout=tableLayout;fontSize=16;" parent="1" vertex="1">
          <mxGeometry x="263" y="233" width="43.952380952380906" height="40" as="geometry" />
        </mxCell>
        <mxCell id="rvzsoMnx6y7NhFi0UlCl-50" style="shape=tableRow;horizontal=0;startSize=0;swimlaneHead=0;swimlaneBody=0;strokeColor=inherit;top=0;left=0;bottom=0;right=0;collapsible=0;dropTarget=0;fillColor=none;points=[[0,0.5],[1,0.5]];portConstraint=eastwest;fontSize=16;" parent="rvzsoMnx6y7NhFi0UlCl-49" vertex="1">
          <mxGeometry width="43.952380952380906" height="40" as="geometry" />
        </mxCell>
        <mxCell id="rvzsoMnx6y7NhFi0UlCl-51" value="E&lt;sub&gt;n&lt;/sub&gt;" style="shape=partialRectangle;html=1;whiteSpace=wrap;connectable=0;strokeColor=inherit;overflow=hidden;fillColor=none;top=0;left=0;bottom=0;right=0;pointerEvents=1;fontSize=16;" parent="rvzsoMnx6y7NhFi0UlCl-50" vertex="1">
          <mxGeometry width="44" height="40" as="geometry">
            <mxRectangle width="44" height="40" as="alternateBounds" />
          </mxGeometry>
        </mxCell>
        <mxCell id="rvzsoMnx6y7NhFi0UlCl-52" value="" style="shape=table;startSize=0;container=1;collapsible=0;childLayout=tableLayout;fontSize=16;" parent="1" vertex="1">
          <mxGeometry x="263" y="327" width="43.952380952380906" height="40" as="geometry" />
        </mxCell>
        <mxCell id="rvzsoMnx6y7NhFi0UlCl-53" style="shape=tableRow;horizontal=0;startSize=0;swimlaneHead=0;swimlaneBody=0;strokeColor=inherit;top=0;left=0;bottom=0;right=0;collapsible=0;dropTarget=0;fillColor=none;points=[[0,0.5],[1,0.5]];portConstraint=eastwest;fontSize=16;" parent="rvzsoMnx6y7NhFi0UlCl-52" vertex="1">
          <mxGeometry width="43.952380952380906" height="40" as="geometry" />
        </mxCell>
        <mxCell id="rvzsoMnx6y7NhFi0UlCl-54" value="P1" style="shape=partialRectangle;html=1;whiteSpace=wrap;connectable=0;strokeColor=inherit;overflow=hidden;fillColor=none;top=0;left=0;bottom=0;right=0;pointerEvents=1;fontSize=16;" parent="rvzsoMnx6y7NhFi0UlCl-53" vertex="1">
          <mxGeometry width="44" height="40" as="geometry">
            <mxRectangle width="44" height="40" as="alternateBounds" />
          </mxGeometry>
        </mxCell>
        <mxCell id="rvzsoMnx6y7NhFi0UlCl-55" value="" style="endArrow=classic;html=1;rounded=0;exitX=1;exitY=0.5;exitDx=0;exitDy=0;entryX=0;entryY=0.5;entryDx=0;entryDy=0;" parent="1" source="rvzsoMnx6y7NhFi0UlCl-30" target="rvzsoMnx6y7NhFi0UlCl-50" edge="1">
          <mxGeometry width="50" height="50" relative="1" as="geometry">
            <mxPoint x="177" y="252.76" as="sourcePoint" />
            <mxPoint x="288" y="252.76" as="targetPoint" />
          </mxGeometry>
        </mxCell>
        <mxCell id="rvzsoMnx6y7NhFi0UlCl-56" value="Course&lt;div&gt;Embedding&lt;/div&gt;" style="edgeLabel;html=1;align=center;verticalAlign=middle;resizable=0;points=[];labelBackgroundColor=none;" parent="rvzsoMnx6y7NhFi0UlCl-55" vertex="1" connectable="0">
          <mxGeometry x="-0.0588" relative="1" as="geometry">
            <mxPoint as="offset" />
          </mxGeometry>
        </mxCell>
        <mxCell id="rvzsoMnx6y7NhFi0UlCl-58" value="" style="endArrow=classic;html=1;rounded=0;exitX=1;exitY=0.5;exitDx=0;exitDy=0;entryX=0;entryY=0.5;entryDx=0;entryDy=0;" parent="1" source="rvzsoMnx6y7NhFi0UlCl-45" target="rvzsoMnx6y7NhFi0UlCl-53" edge="1">
          <mxGeometry width="50" height="50" relative="1" as="geometry">
            <mxPoint x="185" y="310" as="sourcePoint" />
            <mxPoint x="269" y="310" as="targetPoint" />
          </mxGeometry>
        </mxCell>
        <mxCell id="rvzsoMnx6y7NhFi0UlCl-59" value="Position&lt;div&gt;Embedding&lt;/div&gt;" style="edgeLabel;html=1;align=center;verticalAlign=middle;resizable=0;points=[];labelBackgroundColor=none;" parent="rvzsoMnx6y7NhFi0UlCl-58" vertex="1" connectable="0">
          <mxGeometry x="-0.0588" relative="1" as="geometry">
            <mxPoint as="offset" />
          </mxGeometry>
        </mxCell>
        <mxCell id="rvzsoMnx6y7NhFi0UlCl-60" value="" style="shape=cross;whiteSpace=wrap;html=1;fillColor=#000000;" parent="1" vertex="1">
          <mxGeometry x="279.48" y="295" width="11" height="11" as="geometry" />
        </mxCell>
        <mxCell id="rvzsoMnx6y7NhFi0UlCl-64" value="" style="shape=table;startSize=0;container=1;collapsible=0;childLayout=tableLayout;fontSize=16;" parent="1" vertex="1">
          <mxGeometry x="482" y="357.5" width="43.952380952380906" height="40" as="geometry" />
        </mxCell>
        <mxCell id="rvzsoMnx6y7NhFi0UlCl-65" style="shape=tableRow;horizontal=0;startSize=0;swimlaneHead=0;swimlaneBody=0;strokeColor=inherit;top=0;left=0;bottom=0;right=0;collapsible=0;dropTarget=0;fillColor=none;points=[[0,0.5],[1,0.5]];portConstraint=eastwest;fontSize=16;" parent="rvzsoMnx6y7NhFi0UlCl-64" vertex="1">
          <mxGeometry width="43.952380952380906" height="40" as="geometry" />
        </mxCell>
        <mxCell id="rvzsoMnx6y7NhFi0UlCl-66" value="S" style="shape=partialRectangle;html=1;whiteSpace=wrap;connectable=0;strokeColor=inherit;overflow=hidden;fillColor=none;top=0;left=0;bottom=0;right=0;pointerEvents=1;fontSize=16;" parent="rvzsoMnx6y7NhFi0UlCl-65" vertex="1">
          <mxGeometry width="44" height="40" as="geometry">
            <mxRectangle width="44" height="40" as="alternateBounds" />
          </mxGeometry>
        </mxCell>
        <mxCell id="rvzsoMnx6y7NhFi0UlCl-67" value="Total Embedding" style="text;html=1;align=center;verticalAlign=middle;resizable=0;points=[];autosize=1;strokeColor=none;fillColor=none;" parent="1" vertex="1">
          <mxGeometry x="336.48" y="257.5" width="107" height="26" as="geometry" />
        </mxCell>
        <mxCell id="rvzsoMnx6y7NhFi0UlCl-73" value="" style="shape=table;startSize=0;container=1;collapsible=0;childLayout=tableLayout;fontSize=16;" parent="1" vertex="1">
          <mxGeometry x="575" y="281" width="109" height="24" as="geometry" />
        </mxCell>
        <mxCell id="rvzsoMnx6y7NhFi0UlCl-74" style="shape=tableRow;horizontal=0;startSize=0;swimlaneHead=0;swimlaneBody=0;strokeColor=inherit;top=0;left=0;bottom=0;right=0;collapsible=0;dropTarget=0;fillColor=none;points=[[0,0.5],[1,0.5]];portConstraint=eastwest;fontSize=16;" parent="rvzsoMnx6y7NhFi0UlCl-73" vertex="1">
          <mxGeometry width="109" height="24" as="geometry" />
        </mxCell>
        <mxCell id="rvzsoMnx6y7NhFi0UlCl-75" value="Q =S @ W&lt;sub&gt;q&lt;/sub&gt;" style="shape=partialRectangle;html=1;whiteSpace=wrap;connectable=0;strokeColor=inherit;overflow=hidden;fillColor=none;top=0;left=0;bottom=0;right=0;pointerEvents=1;fontSize=16;" parent="rvzsoMnx6y7NhFi0UlCl-74" vertex="1">
          <mxGeometry width="109" height="24" as="geometry">
            <mxRectangle width="109" height="24" as="alternateBounds" />
          </mxGeometry>
        </mxCell>
        <mxCell id="rvzsoMnx6y7NhFi0UlCl-76" value="" style="shape=table;startSize=0;container=1;collapsible=0;childLayout=tableLayout;fontSize=16;" parent="1" vertex="1">
          <mxGeometry x="575" y="342" width="109" height="24" as="geometry" />
        </mxCell>
        <mxCell id="rvzsoMnx6y7NhFi0UlCl-77" style="shape=tableRow;horizontal=0;startSize=0;swimlaneHead=0;swimlaneBody=0;strokeColor=inherit;top=0;left=0;bottom=0;right=0;collapsible=0;dropTarget=0;fillColor=none;points=[[0,0.5],[1,0.5]];portConstraint=eastwest;fontSize=16;" parent="rvzsoMnx6y7NhFi0UlCl-76" vertex="1">
          <mxGeometry width="109" height="24" as="geometry" />
        </mxCell>
        <mxCell id="rvzsoMnx6y7NhFi0UlCl-78" value="K =S @ W&lt;sub&gt;k&lt;/sub&gt;" style="shape=partialRectangle;html=1;whiteSpace=wrap;connectable=0;strokeColor=inherit;overflow=hidden;fillColor=none;top=0;left=0;bottom=0;right=0;pointerEvents=1;fontSize=16;" parent="rvzsoMnx6y7NhFi0UlCl-77" vertex="1">
          <mxGeometry width="109" height="24" as="geometry">
            <mxRectangle width="109" height="24" as="alternateBounds" />
          </mxGeometry>
        </mxCell>
        <mxCell id="rvzsoMnx6y7NhFi0UlCl-80" value="" style="shape=table;startSize=0;container=1;collapsible=0;childLayout=tableLayout;fontSize=16;" parent="1" vertex="1">
          <mxGeometry x="854.48" y="429" width="109" height="24" as="geometry" />
        </mxCell>
        <mxCell id="rvzsoMnx6y7NhFi0UlCl-81" style="shape=tableRow;horizontal=0;startSize=0;swimlaneHead=0;swimlaneBody=0;strokeColor=inherit;top=0;left=0;bottom=0;right=0;collapsible=0;dropTarget=0;fillColor=none;points=[[0,0.5],[1,0.5]];portConstraint=eastwest;fontSize=16;" parent="rvzsoMnx6y7NhFi0UlCl-80" vertex="1">
          <mxGeometry width="109" height="24" as="geometry" />
        </mxCell>
        <mxCell id="rvzsoMnx6y7NhFi0UlCl-82" value="V = S @ W&lt;sub&gt;v&lt;/sub&gt;" style="shape=partialRectangle;html=1;whiteSpace=wrap;connectable=0;strokeColor=inherit;overflow=hidden;fillColor=none;top=0;left=0;bottom=0;right=0;pointerEvents=1;fontSize=16;" parent="rvzsoMnx6y7NhFi0UlCl-81" vertex="1">
          <mxGeometry width="109" height="24" as="geometry">
            <mxRectangle width="109" height="24" as="alternateBounds" />
          </mxGeometry>
        </mxCell>
        <mxCell id="rvzsoMnx6y7NhFi0UlCl-83" value="" style="endArrow=classic;html=1;rounded=0;exitX=1;exitY=0.5;exitDx=0;exitDy=0;entryX=0;entryY=0.5;entryDx=0;entryDy=0;" parent="1" source="rvzsoMnx6y7NhFi0UlCl-64" target="rvzsoMnx6y7NhFi0UlCl-74" edge="1">
          <mxGeometry width="50" height="50" relative="1" as="geometry">
            <mxPoint x="497" y="322.5" as="sourcePoint" />
            <mxPoint x="547" y="272.5" as="targetPoint" />
          </mxGeometry>
        </mxCell>
        <mxCell id="rvzsoMnx6y7NhFi0UlCl-84" value="" style="endArrow=classic;html=1;rounded=0;exitX=1;exitY=0.5;exitDx=0;exitDy=0;entryX=0;entryY=0.5;entryDx=0;entryDy=0;" parent="1" source="rvzsoMnx6y7NhFi0UlCl-64" target="rvzsoMnx6y7NhFi0UlCl-77" edge="1">
          <mxGeometry width="50" height="50" relative="1" as="geometry">
            <mxPoint x="536" y="311.5" as="sourcePoint" />
            <mxPoint x="585" y="279.5" as="targetPoint" />
          </mxGeometry>
        </mxCell>
        <mxCell id="rvzsoMnx6y7NhFi0UlCl-85" value="" style="endArrow=classic;html=1;rounded=0;exitX=1;exitY=0.5;exitDx=0;exitDy=0;entryX=0;entryY=0.5;entryDx=0;entryDy=0;" parent="1" source="rvzsoMnx6y7NhFi0UlCl-64" target="rvzsoMnx6y7NhFi0UlCl-81" edge="1">
          <mxGeometry width="50" height="50" relative="1" as="geometry">
            <mxPoint x="536" y="311.5" as="sourcePoint" />
            <mxPoint x="585" y="310.5" as="targetPoint" />
          </mxGeometry>
        </mxCell>
        <mxCell id="rvzsoMnx6y7NhFi0UlCl-87" value="" style="shape=singleArrow;whiteSpace=wrap;html=1;" parent="1" vertex="1">
          <mxGeometry x="706.22" y="316" width="30.56" height="11" as="geometry" />
        </mxCell>
        <mxCell id="rvzsoMnx6y7NhFi0UlCl-88" value="1/sqrt(d)" style="text;html=1;align=center;verticalAlign=middle;resizable=0;points=[];autosize=1;strokeColor=none;fillColor=none;" parent="1" vertex="1">
          <mxGeometry x="690" y="295.5" width="63" height="26" as="geometry" />
        </mxCell>
        <mxCell id="rvzsoMnx6y7NhFi0UlCl-91" value="&lt;b&gt;@&lt;/b&gt;" style="text;html=1;align=center;verticalAlign=middle;resizable=0;points=[];autosize=1;strokeColor=none;fillColor=none;" parent="1" vertex="1">
          <mxGeometry x="614.5" y="308.5" width="30" height="26" as="geometry" />
        </mxCell>
        <mxCell id="rvzsoMnx6y7NhFi0UlCl-92" value="&lt;b&gt;T&lt;/b&gt;" style="text;html=1;align=center;verticalAlign=middle;resizable=0;points=[];autosize=1;strokeColor=none;fillColor=none;" parent="1" vertex="1">
          <mxGeometry x="675" y="330.5" width="25" height="26" as="geometry" />
        </mxCell>
        <mxCell id="rvzsoMnx6y7NhFi0UlCl-96" value="" style="shape=table;startSize=0;container=1;collapsible=0;childLayout=tableLayout;fontSize=16;" parent="1" vertex="1">
          <mxGeometry x="753" y="301.5" width="43.952380952380906" height="40" as="geometry" />
        </mxCell>
        <mxCell id="rvzsoMnx6y7NhFi0UlCl-97" style="shape=tableRow;horizontal=0;startSize=0;swimlaneHead=0;swimlaneBody=0;strokeColor=inherit;top=0;left=0;bottom=0;right=0;collapsible=0;dropTarget=0;fillColor=none;points=[[0,0.5],[1,0.5]];portConstraint=eastwest;fontSize=16;" parent="rvzsoMnx6y7NhFi0UlCl-96" vertex="1">
          <mxGeometry width="43.952380952380906" height="40" as="geometry" />
        </mxCell>
        <mxCell id="rvzsoMnx6y7NhFi0UlCl-98" value="A" style="shape=partialRectangle;html=1;whiteSpace=wrap;connectable=0;strokeColor=inherit;overflow=hidden;fillColor=none;top=0;left=0;bottom=0;right=0;pointerEvents=1;fontSize=16;" parent="rvzsoMnx6y7NhFi0UlCl-97" vertex="1">
          <mxGeometry width="44" height="40" as="geometry">
            <mxRectangle width="44" height="40" as="alternateBounds" />
          </mxGeometry>
        </mxCell>
        <mxCell id="rvzsoMnx6y7NhFi0UlCl-99" value="&lt;font style=&quot;font-size: 20px;&quot;&gt;&lt;b&gt;.&lt;/b&gt;&lt;/font&gt;" style="text;html=1;align=center;verticalAlign=middle;resizable=0;points=[];autosize=1;strokeColor=none;fillColor=none;" parent="1" vertex="1">
          <mxGeometry x="896.98" y="355" width="24" height="36" as="geometry" />
        </mxCell>
        <mxCell id="rvzsoMnx6y7NhFi0UlCl-100" value="" style="shape=singleArrow;whiteSpace=wrap;html=1;" parent="1" vertex="1">
          <mxGeometry x="313" y="295.5" width="30.56" height="11" as="geometry" />
        </mxCell>
        <mxCell id="rvzsoMnx6y7NhFi0UlCl-101" value="" style="shape=table;startSize=0;container=1;collapsible=0;childLayout=tableLayout;fontSize=16;" parent="1" vertex="1">
          <mxGeometry x="368" y="281" width="43.952380952380906" height="40" as="geometry" />
        </mxCell>
        <mxCell id="rvzsoMnx6y7NhFi0UlCl-102" style="shape=tableRow;horizontal=0;startSize=0;swimlaneHead=0;swimlaneBody=0;strokeColor=inherit;top=0;left=0;bottom=0;right=0;collapsible=0;dropTarget=0;fillColor=none;points=[[0,0.5],[1,0.5]];portConstraint=eastwest;fontSize=16;" parent="rvzsoMnx6y7NhFi0UlCl-101" vertex="1">
          <mxGeometry width="43.952380952380906" height="40" as="geometry" />
        </mxCell>
        <mxCell id="rvzsoMnx6y7NhFi0UlCl-103" value="S&lt;sub&gt;1&lt;/sub&gt;" style="shape=partialRectangle;html=1;whiteSpace=wrap;connectable=0;strokeColor=inherit;overflow=hidden;fillColor=none;top=0;left=0;bottom=0;right=0;pointerEvents=1;fontSize=16;" parent="rvzsoMnx6y7NhFi0UlCl-102" vertex="1">
          <mxGeometry width="44" height="40" as="geometry">
            <mxRectangle width="44" height="40" as="alternateBounds" />
          </mxGeometry>
        </mxCell>
        <mxCell id="rvzsoMnx6y7NhFi0UlCl-104" value="" style="endArrow=classic;html=1;rounded=0;exitX=1;exitY=0.5;exitDx=0;exitDy=0;entryX=0;entryY=0.5;entryDx=0;entryDy=0;" parent="1" source="rvzsoMnx6y7NhFi0UlCl-102" target="rvzsoMnx6y7NhFi0UlCl-65" edge="1">
          <mxGeometry width="50" height="50" relative="1" as="geometry">
            <mxPoint x="439" y="300" as="sourcePoint" />
            <mxPoint x="489" y="250" as="targetPoint" />
          </mxGeometry>
        </mxCell>
        <mxCell id="rvzsoMnx6y7NhFi0UlCl-105" value="Seq Emb" style="text;html=1;align=center;verticalAlign=middle;resizable=0;points=[];autosize=1;strokeColor=none;fillColor=none;" parent="1" vertex="1">
          <mxGeometry x="470.48" y="331.5" width="67" height="26" as="geometry" />
        </mxCell>
        <mxCell id="rvzsoMnx6y7NhFi0UlCl-132" value="" style="shape=table;startSize=0;container=1;collapsible=0;childLayout=tableLayout;fontSize=16;" parent="1" vertex="1">
          <mxGeometry x="135" y="381" width="43.952380952380906" height="40" as="geometry" />
        </mxCell>
        <mxCell id="rvzsoMnx6y7NhFi0UlCl-133" style="shape=tableRow;horizontal=0;startSize=0;swimlaneHead=0;swimlaneBody=0;strokeColor=inherit;top=0;left=0;bottom=0;right=0;collapsible=0;dropTarget=0;fillColor=none;points=[[0,0.5],[1,0.5]];portConstraint=eastwest;fontSize=16;" parent="rvzsoMnx6y7NhFi0UlCl-132" vertex="1">
          <mxGeometry width="43.952380952380906" height="40" as="geometry" />
        </mxCell>
        <mxCell id="rvzsoMnx6y7NhFi0UlCl-134" value="C&lt;sub&gt;n + 1&lt;/sub&gt;" style="shape=partialRectangle;html=1;whiteSpace=wrap;connectable=0;strokeColor=inherit;overflow=hidden;fillColor=none;top=0;left=0;bottom=0;right=0;pointerEvents=1;fontSize=16;" parent="rvzsoMnx6y7NhFi0UlCl-133" vertex="1">
          <mxGeometry width="44" height="40" as="geometry">
            <mxRectangle width="44" height="40" as="alternateBounds" />
          </mxGeometry>
        </mxCell>
        <mxCell id="rvzsoMnx6y7NhFi0UlCl-135" value="" style="shape=table;startSize=0;container=1;collapsible=0;childLayout=tableLayout;fontSize=16;" parent="1" vertex="1">
          <mxGeometry x="135" y="475" width="43.952380952380906" height="40" as="geometry" />
        </mxCell>
        <mxCell id="rvzsoMnx6y7NhFi0UlCl-136" style="shape=tableRow;horizontal=0;startSize=0;swimlaneHead=0;swimlaneBody=0;strokeColor=inherit;top=0;left=0;bottom=0;right=0;collapsible=0;dropTarget=0;fillColor=none;points=[[0,0.5],[1,0.5]];portConstraint=eastwest;fontSize=16;" parent="rvzsoMnx6y7NhFi0UlCl-135" vertex="1">
          <mxGeometry width="43.952380952380906" height="40" as="geometry" />
        </mxCell>
        <mxCell id="rvzsoMnx6y7NhFi0UlCl-137" value="index" style="shape=partialRectangle;html=1;whiteSpace=wrap;connectable=0;strokeColor=inherit;overflow=hidden;fillColor=none;top=0;left=0;bottom=0;right=0;pointerEvents=1;fontSize=16;" parent="rvzsoMnx6y7NhFi0UlCl-136" vertex="1">
          <mxGeometry width="44" height="40" as="geometry">
            <mxRectangle width="44" height="40" as="alternateBounds" />
          </mxGeometry>
        </mxCell>
        <mxCell id="rvzsoMnx6y7NhFi0UlCl-138" value="" style="shape=table;startSize=0;container=1;collapsible=0;childLayout=tableLayout;fontSize=16;" parent="1" vertex="1">
          <mxGeometry x="263" y="381" width="43.952380952380906" height="40" as="geometry" />
        </mxCell>
        <mxCell id="rvzsoMnx6y7NhFi0UlCl-139" style="shape=tableRow;horizontal=0;startSize=0;swimlaneHead=0;swimlaneBody=0;strokeColor=inherit;top=0;left=0;bottom=0;right=0;collapsible=0;dropTarget=0;fillColor=none;points=[[0,0.5],[1,0.5]];portConstraint=eastwest;fontSize=16;" parent="rvzsoMnx6y7NhFi0UlCl-138" vertex="1">
          <mxGeometry width="43.952380952380906" height="40" as="geometry" />
        </mxCell>
        <mxCell id="rvzsoMnx6y7NhFi0UlCl-140" value="E&lt;sub&gt;n + 1&lt;/sub&gt;" style="shape=partialRectangle;html=1;whiteSpace=wrap;connectable=0;strokeColor=inherit;overflow=hidden;fillColor=none;top=0;left=0;bottom=0;right=0;pointerEvents=1;fontSize=16;" parent="rvzsoMnx6y7NhFi0UlCl-139" vertex="1">
          <mxGeometry width="44" height="40" as="geometry">
            <mxRectangle width="44" height="40" as="alternateBounds" />
          </mxGeometry>
        </mxCell>
        <mxCell id="rvzsoMnx6y7NhFi0UlCl-141" value="" style="shape=table;startSize=0;container=1;collapsible=0;childLayout=tableLayout;fontSize=16;" parent="1" vertex="1">
          <mxGeometry x="263" y="475" width="43.952380952380906" height="40" as="geometry" />
        </mxCell>
        <mxCell id="rvzsoMnx6y7NhFi0UlCl-142" style="shape=tableRow;horizontal=0;startSize=0;swimlaneHead=0;swimlaneBody=0;strokeColor=inherit;top=0;left=0;bottom=0;right=0;collapsible=0;dropTarget=0;fillColor=none;points=[[0,0.5],[1,0.5]];portConstraint=eastwest;fontSize=16;" parent="rvzsoMnx6y7NhFi0UlCl-141" vertex="1">
          <mxGeometry width="43.952380952380906" height="40" as="geometry" />
        </mxCell>
        <mxCell id="rvzsoMnx6y7NhFi0UlCl-143" value="P2" style="shape=partialRectangle;html=1;whiteSpace=wrap;connectable=0;strokeColor=inherit;overflow=hidden;fillColor=none;top=0;left=0;bottom=0;right=0;pointerEvents=1;fontSize=16;" parent="rvzsoMnx6y7NhFi0UlCl-142" vertex="1">
          <mxGeometry width="44" height="40" as="geometry">
            <mxRectangle width="44" height="40" as="alternateBounds" />
          </mxGeometry>
        </mxCell>
        <mxCell id="rvzsoMnx6y7NhFi0UlCl-144" value="" style="endArrow=classic;html=1;rounded=0;exitX=1;exitY=0.5;exitDx=0;exitDy=0;entryX=0;entryY=0.5;entryDx=0;entryDy=0;" parent="1" source="rvzsoMnx6y7NhFi0UlCl-133" target="rvzsoMnx6y7NhFi0UlCl-139" edge="1">
          <mxGeometry width="50" height="50" relative="1" as="geometry">
            <mxPoint x="177" y="400.76" as="sourcePoint" />
            <mxPoint x="288" y="400.76" as="targetPoint" />
          </mxGeometry>
        </mxCell>
        <mxCell id="rvzsoMnx6y7NhFi0UlCl-146" value="" style="endArrow=classic;html=1;rounded=0;exitX=1;exitY=0.5;exitDx=0;exitDy=0;entryX=0;entryY=0.5;entryDx=0;entryDy=0;" parent="1" source="rvzsoMnx6y7NhFi0UlCl-136" target="rvzsoMnx6y7NhFi0UlCl-142" edge="1">
          <mxGeometry width="50" height="50" relative="1" as="geometry">
            <mxPoint x="185" y="458" as="sourcePoint" />
            <mxPoint x="269" y="458" as="targetPoint" />
          </mxGeometry>
        </mxCell>
        <mxCell id="rvzsoMnx6y7NhFi0UlCl-148" value="" style="shape=cross;whiteSpace=wrap;html=1;fillColor=#000000;" parent="1" vertex="1">
          <mxGeometry x="279.48" y="443" width="11" height="11" as="geometry" />
        </mxCell>
        <mxCell id="rvzsoMnx6y7NhFi0UlCl-149" value="" style="shape=singleArrow;whiteSpace=wrap;html=1;" parent="1" vertex="1">
          <mxGeometry x="313" y="443.5" width="30.56" height="11" as="geometry" />
        </mxCell>
        <mxCell id="rvzsoMnx6y7NhFi0UlCl-150" value="" style="shape=table;startSize=0;container=1;collapsible=0;childLayout=tableLayout;fontSize=16;" parent="1" vertex="1">
          <mxGeometry x="368" y="429" width="43.952380952380906" height="40" as="geometry" />
        </mxCell>
        <mxCell id="rvzsoMnx6y7NhFi0UlCl-151" style="shape=tableRow;horizontal=0;startSize=0;swimlaneHead=0;swimlaneBody=0;strokeColor=inherit;top=0;left=0;bottom=0;right=0;collapsible=0;dropTarget=0;fillColor=none;points=[[0,0.5],[1,0.5]];portConstraint=eastwest;fontSize=16;" parent="rvzsoMnx6y7NhFi0UlCl-150" vertex="1">
          <mxGeometry width="43.952380952380906" height="40" as="geometry" />
        </mxCell>
        <mxCell id="rvzsoMnx6y7NhFi0UlCl-152" value="S&lt;sub&gt;2&lt;/sub&gt;" style="shape=partialRectangle;html=1;whiteSpace=wrap;connectable=0;strokeColor=inherit;overflow=hidden;fillColor=none;top=0;left=0;bottom=0;right=0;pointerEvents=1;fontSize=16;" parent="rvzsoMnx6y7NhFi0UlCl-151" vertex="1">
          <mxGeometry width="44" height="40" as="geometry">
            <mxRectangle width="44" height="40" as="alternateBounds" />
          </mxGeometry>
        </mxCell>
        <mxCell id="rvzsoMnx6y7NhFi0UlCl-153" value="" style="endArrow=classic;html=1;rounded=0;exitX=1;exitY=0.5;exitDx=0;exitDy=0;entryX=0;entryY=0.5;entryDx=0;entryDy=0;" parent="1" source="rvzsoMnx6y7NhFi0UlCl-151" target="rvzsoMnx6y7NhFi0UlCl-65" edge="1">
          <mxGeometry width="50" height="50" relative="1" as="geometry">
            <mxPoint x="439" y="448" as="sourcePoint" />
            <mxPoint x="482" y="449" as="targetPoint" />
          </mxGeometry>
        </mxCell>
        <mxCell id="rvzsoMnx6y7NhFi0UlCl-154" value="" style="endArrow=classic;html=1;rounded=0;exitX=1;exitY=0.5;exitDx=0;exitDy=0;entryX=0;entryY=0.5;entryDx=0;entryDy=0;" parent="1" source="rvzsoMnx6y7NhFi0UlCl-22" target="rvzsoMnx6y7NhFi0UlCl-133" edge="1">
          <mxGeometry width="50" height="50" relative="1" as="geometry">
            <mxPoint x="34" y="263" as="sourcePoint" />
            <mxPoint x="145" y="357" as="targetPoint" />
          </mxGeometry>
        </mxCell>
        <mxCell id="rvzsoMnx6y7NhFi0UlCl-155" value="" style="endArrow=classic;html=1;rounded=0;exitX=1;exitY=0.5;exitDx=0;exitDy=0;entryX=0;entryY=0.5;entryDx=0;entryDy=0;" parent="1" source="rvzsoMnx6y7NhFi0UlCl-22" target="rvzsoMnx6y7NhFi0UlCl-136" edge="1">
          <mxGeometry width="50" height="50" relative="1" as="geometry">
            <mxPoint x="34" y="263" as="sourcePoint" />
            <mxPoint x="145" y="411" as="targetPoint" />
          </mxGeometry>
        </mxCell>
        <mxCell id="rvzsoMnx6y7NhFi0UlCl-158" value="" style="shape=singleArrow;whiteSpace=wrap;html=1;" parent="1" vertex="1">
          <mxGeometry x="829.48" y="316" width="30.56" height="11" as="geometry" />
        </mxCell>
        <mxCell id="rvzsoMnx6y7NhFi0UlCl-159" value="Masking" style="text;html=1;align=center;verticalAlign=middle;resizable=0;points=[];autosize=1;strokeColor=none;fillColor=none;" parent="1" vertex="1">
          <mxGeometry x="813.26" y="295.5" width="63" height="26" as="geometry" />
        </mxCell>
        <mxCell id="rvzsoMnx6y7NhFi0UlCl-160" value="" style="shape=table;startSize=0;container=1;collapsible=0;childLayout=tableLayout;fontSize=16;" parent="1" vertex="1">
          <mxGeometry x="887" y="301.5" width="43.952380952380906" height="40" as="geometry" />
        </mxCell>
        <mxCell id="rvzsoMnx6y7NhFi0UlCl-161" style="shape=tableRow;horizontal=0;startSize=0;swimlaneHead=0;swimlaneBody=0;strokeColor=inherit;top=0;left=0;bottom=0;right=0;collapsible=0;dropTarget=0;fillColor=none;points=[[0,0.5],[1,0.5]];portConstraint=eastwest;fontSize=16;" parent="rvzsoMnx6y7NhFi0UlCl-160" vertex="1">
          <mxGeometry width="43.952380952380906" height="40" as="geometry" />
        </mxCell>
        <mxCell id="rvzsoMnx6y7NhFi0UlCl-162" value="A&#39;" style="shape=partialRectangle;html=1;whiteSpace=wrap;connectable=0;strokeColor=inherit;overflow=hidden;fillColor=none;top=0;left=0;bottom=0;right=0;pointerEvents=1;fontSize=16;" parent="rvzsoMnx6y7NhFi0UlCl-161" vertex="1">
          <mxGeometry width="44" height="40" as="geometry">
            <mxRectangle width="44" height="40" as="alternateBounds" />
          </mxGeometry>
        </mxCell>
        <mxCell id="rvzsoMnx6y7NhFi0UlCl-163" value="" style="shape=singleArrow;whiteSpace=wrap;html=1;" parent="1" vertex="1">
          <mxGeometry x="946" y="372" width="30.56" height="11" as="geometry" />
        </mxCell>
        <mxCell id="rvzsoMnx6y7NhFi0UlCl-164" value="" style="shape=table;startSize=0;container=1;collapsible=0;childLayout=tableLayout;fontSize=16;" parent="1" vertex="1">
          <mxGeometry x="1004" y="357.5" width="43.952380952380906" height="40" as="geometry" />
        </mxCell>
        <mxCell id="rvzsoMnx6y7NhFi0UlCl-165" style="shape=tableRow;horizontal=0;startSize=0;swimlaneHead=0;swimlaneBody=0;strokeColor=inherit;top=0;left=0;bottom=0;right=0;collapsible=0;dropTarget=0;fillColor=none;points=[[0,0.5],[1,0.5]];portConstraint=eastwest;fontSize=16;" parent="rvzsoMnx6y7NhFi0UlCl-164" vertex="1">
          <mxGeometry width="43.952380952380906" height="40" as="geometry" />
        </mxCell>
        <mxCell id="rvzsoMnx6y7NhFi0UlCl-166" value="S&#39;" style="shape=partialRectangle;html=1;whiteSpace=wrap;connectable=0;strokeColor=inherit;overflow=hidden;fillColor=none;top=0;left=0;bottom=0;right=0;pointerEvents=1;fontSize=16;" parent="rvzsoMnx6y7NhFi0UlCl-165" vertex="1">
          <mxGeometry width="44" height="40" as="geometry">
            <mxRectangle width="44" height="40" as="alternateBounds" />
          </mxGeometry>
        </mxCell>
        <mxCell id="rvzsoMnx6y7NhFi0UlCl-168" value="" style="shape=table;startSize=0;container=1;collapsible=0;childLayout=tableLayout;fontSize=16;" parent="1" vertex="1">
          <mxGeometry x="1124" y="357.5" width="43.952380952380906" height="40" as="geometry" />
        </mxCell>
        <mxCell id="rvzsoMnx6y7NhFi0UlCl-169" style="shape=tableRow;horizontal=0;startSize=0;swimlaneHead=0;swimlaneBody=0;strokeColor=inherit;top=0;left=0;bottom=0;right=0;collapsible=0;dropTarget=0;fillColor=none;points=[[0,0.5],[1,0.5]];portConstraint=eastwest;fontSize=16;" parent="rvzsoMnx6y7NhFi0UlCl-168" vertex="1">
          <mxGeometry width="43.952380952380906" height="40" as="geometry" />
        </mxCell>
        <mxCell id="rvzsoMnx6y7NhFi0UlCl-170" value="S&#39;" style="shape=partialRectangle;html=1;whiteSpace=wrap;connectable=0;strokeColor=inherit;overflow=hidden;fillColor=none;top=0;left=0;bottom=0;right=0;pointerEvents=1;fontSize=16;" parent="rvzsoMnx6y7NhFi0UlCl-169" vertex="1">
          <mxGeometry width="44" height="40" as="geometry">
            <mxRectangle width="44" height="40" as="alternateBounds" />
          </mxGeometry>
        </mxCell>
        <mxCell id="rvzsoMnx6y7NhFi0UlCl-172" value="Dropout" style="shape=singleArrow;whiteSpace=wrap;html=1;labelPosition=center;verticalLabelPosition=bottom;align=center;verticalAlign=top;" parent="1" vertex="1">
          <mxGeometry x="1071" y="372" width="30.56" height="11" as="geometry" />
        </mxCell>
        <mxCell id="rvzsoMnx6y7NhFi0UlCl-175" value="" style="edgeStyle=elbowEdgeStyle;elbow=vertical;endArrow=classic;html=1;curved=0;rounded=0;endSize=8;startSize=8;exitX=0.499;exitY=-0.015;exitDx=0;exitDy=0;entryX=0;entryY=0;entryDx=12.223999999999998;entryDy=7.15;entryPerimeter=0;exitPerimeter=0;" parent="1" source="rvzsoMnx6y7NhFi0UlCl-74" target="rvzsoMnx6y7NhFi0UlCl-172" edge="1">
          <mxGeometry width="50" height="50" relative="1" as="geometry">
            <mxPoint x="597" y="450" as="sourcePoint" />
            <mxPoint x="647" y="400" as="targetPoint" />
            <Array as="points">
              <mxPoint x="830" y="256" />
            </Array>
          </mxGeometry>
        </mxCell>
        <mxCell id="ADp_H2QigFvuDZXJTlt6-1" value="&lt;font style=&quot;font-size: 16px;&quot;&gt;&lt;b&gt;POINT WISE FEED FORWARD NETWORK&lt;/b&gt;&lt;/font&gt;" style="rounded=1;whiteSpace=wrap;html=1;dashed=1;dashPattern=8 8;labelPosition=center;verticalLabelPosition=top;align=center;verticalAlign=bottom;" parent="1" vertex="1">
          <mxGeometry x="1254" y="216" width="434" height="317" as="geometry" />
        </mxCell>
        <mxCell id="rvzsoMnx6y7NhFi0UlCl-176" value="" style="shape=singleArrow;whiteSpace=wrap;html=1;labelPosition=center;verticalLabelPosition=top;align=center;verticalAlign=bottom;" parent="1" vertex="1">
          <mxGeometry x="1195" y="360.5" width="84" height="37" as="geometry" />
        </mxCell>
        <mxCell id="ADp_H2QigFvuDZXJTlt6-2" value="" style="shape=table;startSize=0;container=1;collapsible=0;childLayout=tableLayout;fontSize=16;" parent="1" vertex="1">
          <mxGeometry x="1282" y="365.5" width="135" height="25.5" as="geometry" />
        </mxCell>
        <mxCell id="ADp_H2QigFvuDZXJTlt6-3" style="shape=tableRow;horizontal=0;startSize=0;swimlaneHead=0;swimlaneBody=0;strokeColor=inherit;top=0;left=0;bottom=0;right=0;collapsible=0;dropTarget=0;fillColor=none;points=[[0,0.5],[1,0.5]];portConstraint=eastwest;fontSize=16;" parent="ADp_H2QigFvuDZXJTlt6-2" vertex="1">
          <mxGeometry width="135" height="26" as="geometry" />
        </mxCell>
        <mxCell id="ADp_H2QigFvuDZXJTlt6-4" value="S&#39; = S&#39; @ W&lt;sub&gt;1&lt;/sub&gt; + b&lt;sub&gt;1&lt;/sub&gt;" style="shape=partialRectangle;html=1;whiteSpace=wrap;connectable=0;strokeColor=inherit;overflow=hidden;fillColor=none;top=0;left=0;bottom=0;right=0;pointerEvents=1;fontSize=16;" parent="ADp_H2QigFvuDZXJTlt6-3" vertex="1">
          <mxGeometry width="135" height="26" as="geometry">
            <mxRectangle width="135" height="26" as="alternateBounds" />
          </mxGeometry>
        </mxCell>
        <mxCell id="ADp_H2QigFvuDZXJTlt6-8" value="" style="shape=table;startSize=0;container=1;collapsible=0;childLayout=tableLayout;fontSize=16;" parent="1" vertex="1">
          <mxGeometry x="1486" y="364.75" width="139" height="25.5" as="geometry" />
        </mxCell>
        <mxCell id="ADp_H2QigFvuDZXJTlt6-9" style="shape=tableRow;horizontal=0;startSize=0;swimlaneHead=0;swimlaneBody=0;strokeColor=inherit;top=0;left=0;bottom=0;right=0;collapsible=0;dropTarget=0;fillColor=none;points=[[0,0.5],[1,0.5]];portConstraint=eastwest;fontSize=16;" parent="ADp_H2QigFvuDZXJTlt6-8" vertex="1">
          <mxGeometry width="139" height="26" as="geometry" />
        </mxCell>
        <mxCell id="ADp_H2QigFvuDZXJTlt6-10" value="S&#39; = S&#39; @ W&lt;sub&gt;2&lt;/sub&gt; + b&lt;sub&gt;2&lt;/sub&gt;" style="shape=partialRectangle;html=1;whiteSpace=wrap;connectable=0;strokeColor=inherit;overflow=hidden;fillColor=none;top=0;left=0;bottom=0;right=0;pointerEvents=1;fontSize=16;" parent="ADp_H2QigFvuDZXJTlt6-9" vertex="1">
          <mxGeometry width="139" height="26" as="geometry">
            <mxRectangle width="139" height="26" as="alternateBounds" />
          </mxGeometry>
        </mxCell>
        <mxCell id="ADp_H2QigFvuDZXJTlt6-11" value="Relu" style="shape=singleArrow;whiteSpace=wrap;html=1;labelPosition=center;verticalLabelPosition=top;align=center;verticalAlign=bottom;" parent="1" vertex="1">
          <mxGeometry x="1431.72" y="372" width="30.56" height="11" as="geometry" />
        </mxCell>
        <mxCell id="_snh1DIt5F8v06N409Mb-1" value="&lt;div align=&quot;left&quot;&gt;n: Number of user&#39;s course&lt;/div&gt;&lt;div align=&quot;left&quot;&gt;d: Number of dims (hidden units)&lt;/div&gt;" style="rounded=0;whiteSpace=wrap;html=1;align=left;" parent="1" vertex="1">
          <mxGeometry x="482" y="471" width="146" height="44" as="geometry" />
        </mxCell>
        <mxCell id="_snh1DIt5F8v06N409Mb-2" value="(n,d)" style="text;html=1;align=center;verticalAlign=middle;resizable=0;points=[];autosize=1;strokeColor=none;fillColor=none;" parent="1" vertex="1">
          <mxGeometry x="494" y="393" width="43" height="26" as="geometry" />
        </mxCell>
        <mxCell id="_snh1DIt5F8v06N409Mb-3" value="(1,d)" style="text;html=1;align=center;verticalAlign=middle;resizable=0;points=[];autosize=1;strokeColor=none;fillColor=none;" parent="1" vertex="1">
          <mxGeometry x="379" y="318" width="43" height="26" as="geometry" />
        </mxCell>
        <mxCell id="_snh1DIt5F8v06N409Mb-4" value="(n,d)" style="text;html=1;align=center;verticalAlign=middle;resizable=0;points=[];autosize=1;strokeColor=none;fillColor=none;" parent="1" vertex="1">
          <mxGeometry x="653" y="301" width="43" height="26" as="geometry" />
        </mxCell>
        <mxCell id="_snh1DIt5F8v06N409Mb-5" value="(d,n)" style="text;html=1;align=center;verticalAlign=middle;resizable=0;points=[];autosize=1;strokeColor=none;fillColor=none;" parent="1" vertex="1">
          <mxGeometry x="653" y="361.5" width="43" height="26" as="geometry" />
        </mxCell>
        <mxCell id="_snh1DIt5F8v06N409Mb-6" value="(n,n)" style="text;html=1;align=center;verticalAlign=middle;resizable=0;points=[];autosize=1;strokeColor=none;fillColor=none;" parent="1" vertex="1">
          <mxGeometry x="765" y="338" width="43" height="26" as="geometry" />
        </mxCell>
        <mxCell id="_snh1DIt5F8v06N409Mb-7" value="(n,n)" style="text;html=1;align=center;verticalAlign=middle;resizable=0;points=[];autosize=1;strokeColor=none;fillColor=none;" parent="1" vertex="1">
          <mxGeometry x="899" y="335.5" width="43" height="26" as="geometry" />
        </mxCell>
        <mxCell id="_snh1DIt5F8v06N409Mb-8" value="(n,d)" style="text;html=1;align=center;verticalAlign=middle;resizable=0;points=[];autosize=1;strokeColor=none;fillColor=none;" parent="1" vertex="1">
          <mxGeometry x="933.56" y="449" width="43" height="26" as="geometry" />
        </mxCell>
        <mxCell id="_snh1DIt5F8v06N409Mb-9" value="(n,d)" style="text;html=1;align=center;verticalAlign=middle;resizable=0;points=[];autosize=1;strokeColor=none;fillColor=none;" parent="1" vertex="1">
          <mxGeometry x="1016" y="393" width="43" height="26" as="geometry" />
        </mxCell>
        <mxCell id="rvzsoMnx6y7NhFi0UlCl-26" value="&lt;b&gt;Training Sequence&lt;/b&gt;" style="text;html=1;align=center;verticalAlign=middle;resizable=0;points=[];autosize=1;strokeColor=none;fillColor=none;" parent="1" vertex="1">
          <mxGeometry x="-191.52" y="510" width="125" height="26" as="geometry" />
        </mxCell>
        <mxCell id="j9KJ5yuXrT_S9AdhNe95-3" value="" style="shape=table;startSize=0;container=1;collapsible=0;childLayout=tableLayout;fontSize=16;" parent="1" vertex="1">
          <mxGeometry x="-151" y="231" width="43.952380952380906" height="280" as="geometry" />
        </mxCell>
        <mxCell id="j9KJ5yuXrT_S9AdhNe95-16" style="shape=tableRow;horizontal=0;startSize=0;swimlaneHead=0;swimlaneBody=0;strokeColor=inherit;top=0;left=0;bottom=0;right=0;collapsible=0;dropTarget=0;fillColor=none;points=[[0,0.5],[1,0.5]];portConstraint=eastwest;fontSize=16;" parent="j9KJ5yuXrT_S9AdhNe95-3" vertex="1">
          <mxGeometry width="43.952380952380906" height="40" as="geometry" />
        </mxCell>
        <mxCell id="j9KJ5yuXrT_S9AdhNe95-17" value="C&lt;sub&gt;1&lt;/sub&gt;" style="shape=partialRectangle;html=1;whiteSpace=wrap;connectable=0;strokeColor=inherit;overflow=hidden;fillColor=none;top=0;left=0;bottom=0;right=0;pointerEvents=1;fontSize=16;" parent="j9KJ5yuXrT_S9AdhNe95-16" vertex="1">
          <mxGeometry width="44" height="40" as="geometry">
            <mxRectangle width="44" height="40" as="alternateBounds" />
          </mxGeometry>
        </mxCell>
        <mxCell id="j9KJ5yuXrT_S9AdhNe95-14" style="shape=tableRow;horizontal=0;startSize=0;swimlaneHead=0;swimlaneBody=0;strokeColor=inherit;top=0;left=0;bottom=0;right=0;collapsible=0;dropTarget=0;fillColor=none;points=[[0,0.5],[1,0.5]];portConstraint=eastwest;fontSize=16;" parent="j9KJ5yuXrT_S9AdhNe95-3" vertex="1">
          <mxGeometry y="40" width="43.952380952380906" height="40" as="geometry" />
        </mxCell>
        <mxCell id="j9KJ5yuXrT_S9AdhNe95-15" value="C&lt;sub&gt;2&lt;/sub&gt;" style="shape=partialRectangle;html=1;whiteSpace=wrap;connectable=0;strokeColor=inherit;overflow=hidden;fillColor=none;top=0;left=0;bottom=0;right=0;pointerEvents=1;fontSize=16;" parent="j9KJ5yuXrT_S9AdhNe95-14" vertex="1">
          <mxGeometry width="44" height="40" as="geometry">
            <mxRectangle width="44" height="40" as="alternateBounds" />
          </mxGeometry>
        </mxCell>
        <mxCell id="j9KJ5yuXrT_S9AdhNe95-4" style="shape=tableRow;horizontal=0;startSize=0;swimlaneHead=0;swimlaneBody=0;strokeColor=inherit;top=0;left=0;bottom=0;right=0;collapsible=0;dropTarget=0;fillColor=none;points=[[0,0.5],[1,0.5]];portConstraint=eastwest;fontSize=16;" parent="j9KJ5yuXrT_S9AdhNe95-3" vertex="1">
          <mxGeometry y="80" width="43.952380952380906" height="40" as="geometry" />
        </mxCell>
        <mxCell id="j9KJ5yuXrT_S9AdhNe95-5" value="C&lt;sub&gt;3&lt;/sub&gt;" style="shape=partialRectangle;html=1;whiteSpace=wrap;connectable=0;strokeColor=inherit;overflow=hidden;fillColor=none;top=0;left=0;bottom=0;right=0;pointerEvents=1;fontSize=16;" parent="j9KJ5yuXrT_S9AdhNe95-4" vertex="1">
          <mxGeometry width="44" height="40" as="geometry">
            <mxRectangle width="44" height="40" as="alternateBounds" />
          </mxGeometry>
        </mxCell>
        <mxCell id="j9KJ5yuXrT_S9AdhNe95-6" style="shape=tableRow;horizontal=0;startSize=0;swimlaneHead=0;swimlaneBody=0;strokeColor=inherit;top=0;left=0;bottom=0;right=0;collapsible=0;dropTarget=0;fillColor=none;points=[[0,0.5],[1,0.5]];portConstraint=eastwest;fontSize=16;" parent="j9KJ5yuXrT_S9AdhNe95-3" vertex="1">
          <mxGeometry y="120" width="43.952380952380906" height="40" as="geometry" />
        </mxCell>
        <mxCell id="j9KJ5yuXrT_S9AdhNe95-7" value="C&lt;sub&gt;4&lt;/sub&gt;" style="shape=partialRectangle;html=1;whiteSpace=wrap;connectable=0;strokeColor=inherit;overflow=hidden;fillColor=none;top=0;left=0;bottom=0;right=0;pointerEvents=1;fontSize=16;" parent="j9KJ5yuXrT_S9AdhNe95-6" vertex="1">
          <mxGeometry width="44" height="40" as="geometry">
            <mxRectangle width="44" height="40" as="alternateBounds" />
          </mxGeometry>
        </mxCell>
        <mxCell id="j9KJ5yuXrT_S9AdhNe95-8" value="" style="shape=tableRow;horizontal=0;startSize=0;swimlaneHead=0;swimlaneBody=0;strokeColor=inherit;top=0;left=0;bottom=0;right=0;collapsible=0;dropTarget=0;fillColor=none;points=[[0,0.5],[1,0.5]];portConstraint=eastwest;fontSize=16;" parent="j9KJ5yuXrT_S9AdhNe95-3" vertex="1">
          <mxGeometry y="160" width="43.952380952380906" height="40" as="geometry" />
        </mxCell>
        <mxCell id="j9KJ5yuXrT_S9AdhNe95-9" value="..." style="shape=partialRectangle;html=1;whiteSpace=wrap;connectable=0;strokeColor=inherit;overflow=hidden;fillColor=none;top=0;left=0;bottom=0;right=0;pointerEvents=1;fontSize=16;" parent="j9KJ5yuXrT_S9AdhNe95-8" vertex="1">
          <mxGeometry width="44" height="40" as="geometry">
            <mxRectangle width="44" height="40" as="alternateBounds" />
          </mxGeometry>
        </mxCell>
        <mxCell id="j9KJ5yuXrT_S9AdhNe95-10" value="" style="shape=tableRow;horizontal=0;startSize=0;swimlaneHead=0;swimlaneBody=0;strokeColor=inherit;top=0;left=0;bottom=0;right=0;collapsible=0;dropTarget=0;fillColor=none;points=[[0,0.5],[1,0.5]];portConstraint=eastwest;fontSize=16;" parent="j9KJ5yuXrT_S9AdhNe95-3" vertex="1">
          <mxGeometry y="200" width="43.952380952380906" height="40" as="geometry" />
        </mxCell>
        <mxCell id="j9KJ5yuXrT_S9AdhNe95-11" value="..." style="shape=partialRectangle;html=1;whiteSpace=wrap;connectable=0;strokeColor=inherit;overflow=hidden;fillColor=none;top=0;left=0;bottom=0;right=0;pointerEvents=1;fontSize=16;" parent="j9KJ5yuXrT_S9AdhNe95-10" vertex="1">
          <mxGeometry width="44" height="40" as="geometry">
            <mxRectangle width="44" height="40" as="alternateBounds" />
          </mxGeometry>
        </mxCell>
        <mxCell id="j9KJ5yuXrT_S9AdhNe95-12" value="" style="shape=tableRow;horizontal=0;startSize=0;swimlaneHead=0;swimlaneBody=0;strokeColor=inherit;top=0;left=0;bottom=0;right=0;collapsible=0;dropTarget=0;fillColor=none;points=[[0,0.5],[1,0.5]];portConstraint=eastwest;fontSize=16;" parent="j9KJ5yuXrT_S9AdhNe95-3" vertex="1">
          <mxGeometry y="240" width="43.952380952380906" height="40" as="geometry" />
        </mxCell>
        <mxCell id="j9KJ5yuXrT_S9AdhNe95-13" value="C&lt;sub&gt;x&lt;/sub&gt;" style="shape=partialRectangle;html=1;whiteSpace=wrap;connectable=0;strokeColor=inherit;overflow=hidden;fillColor=none;top=0;left=0;bottom=0;right=0;pointerEvents=1;fontSize=16;" parent="j9KJ5yuXrT_S9AdhNe95-12" vertex="1">
          <mxGeometry width="44" height="40" as="geometry">
            <mxRectangle width="44" height="40" as="alternateBounds" />
          </mxGeometry>
        </mxCell>
        <mxCell id="j9KJ5yuXrT_S9AdhNe95-20" value="&lt;b&gt;Fixed Sequence&lt;/b&gt;" style="text;html=1;align=center;verticalAlign=middle;resizable=0;points=[];autosize=1;strokeColor=none;fillColor=none;" parent="1" vertex="1">
          <mxGeometry x="-52.52000000000001" y="436" width="109" height="26" as="geometry" />
        </mxCell>
        <mxCell id="j9KJ5yuXrT_S9AdhNe95-21" value="" style="shape=singleArrow;whiteSpace=wrap;html=1;labelPosition=center;verticalLabelPosition=top;align=center;verticalAlign=bottom;" parent="1" vertex="1">
          <mxGeometry x="-101.01999999999998" y="359.75" width="72" height="37" as="geometry" />
        </mxCell>
        <mxCell id="j9KJ5yuXrT_S9AdhNe95-26" value="" style="group" parent="1" vertex="1" connectable="0">
          <mxGeometry x="1718" y="306" width="136" height="115" as="geometry" />
        </mxCell>
        <mxCell id="ADp_H2QigFvuDZXJTlt6-19" value="" style="shape=table;startSize=0;container=1;collapsible=0;childLayout=tableLayout;fontSize=16;" parent="j9KJ5yuXrT_S9AdhNe95-26" vertex="1">
          <mxGeometry x="42.73000000000002" y="45.5" width="50.55" height="46" as="geometry" />
        </mxCell>
        <mxCell id="ADp_H2QigFvuDZXJTlt6-20" style="shape=tableRow;horizontal=0;startSize=0;swimlaneHead=0;swimlaneBody=0;strokeColor=inherit;top=0;left=0;bottom=0;right=0;collapsible=0;dropTarget=0;fillColor=none;points=[[0,0.5],[1,0.5]];portConstraint=eastwest;fontSize=16;" parent="ADp_H2QigFvuDZXJTlt6-19" vertex="1">
          <mxGeometry width="50.55" height="46" as="geometry" />
        </mxCell>
        <mxCell id="ADp_H2QigFvuDZXJTlt6-21" value="S&#39;" style="shape=partialRectangle;html=1;whiteSpace=wrap;connectable=0;strokeColor=inherit;overflow=hidden;fillColor=none;top=0;left=0;bottom=0;right=0;pointerEvents=1;fontSize=16;" parent="ADp_H2QigFvuDZXJTlt6-20" vertex="1">
          <mxGeometry width="51" height="46" as="geometry">
            <mxRectangle width="51" height="46" as="alternateBounds" />
          </mxGeometry>
        </mxCell>
        <mxCell id="ADp_H2QigFvuDZXJTlt6-22" value="&lt;div&gt;&lt;font style=&quot;font-size: 16px;&quot;&gt;&lt;b&gt;Contextualized&amp;nbsp;&lt;/b&gt;&lt;/font&gt;&lt;/div&gt;&lt;div&gt;&lt;font style=&quot;font-size: 16px;&quot;&gt;&lt;b&gt;representation&lt;/b&gt;&lt;/font&gt;&lt;/div&gt;" style="text;html=1;align=center;verticalAlign=middle;resizable=0;points=[];autosize=1;strokeColor=none;fillColor=none;" parent="j9KJ5yuXrT_S9AdhNe95-26" vertex="1">
          <mxGeometry width="136" height="50" as="geometry" />
        </mxCell>
        <mxCell id="_snh1DIt5F8v06N409Mb-10" value="(n,d)" style="text;html=1;align=center;verticalAlign=middle;resizable=0;points=[];autosize=1;strokeColor=none;fillColor=none;" parent="j9KJ5yuXrT_S9AdhNe95-26" vertex="1">
          <mxGeometry x="61" y="89" width="43" height="26" as="geometry" />
        </mxCell>
        <mxCell id="j9KJ5yuXrT_S9AdhNe95-27" value="Dropout" style="shape=singleArrow;whiteSpace=wrap;html=1;labelPosition=center;verticalLabelPosition=middle;align=center;verticalAlign=middle;" parent="1" vertex="1">
          <mxGeometry x="1657" y="359" width="72" height="37" as="geometry" />
        </mxCell>
        <mxCell id="j9KJ5yuXrT_S9AdhNe95-30" value="" style="shape=cross;whiteSpace=wrap;html=1;rotation=45;" parent="1" vertex="1">
          <mxGeometry x="1931" y="371.5" width="15" height="15" as="geometry" />
        </mxCell>
        <mxCell id="j9KJ5yuXrT_S9AdhNe95-33" value="" style="shape=table;startSize=0;container=1;collapsible=0;childLayout=tableLayout;fontSize=16;" parent="1" vertex="1">
          <mxGeometry x="1913.22" y="296" width="50.55" height="46" as="geometry" />
        </mxCell>
        <mxCell id="j9KJ5yuXrT_S9AdhNe95-34" style="shape=tableRow;horizontal=0;startSize=0;swimlaneHead=0;swimlaneBody=0;strokeColor=inherit;top=0;left=0;bottom=0;right=0;collapsible=0;dropTarget=0;fillColor=none;points=[[0,0.5],[1,0.5]];portConstraint=eastwest;fontSize=16;" parent="j9KJ5yuXrT_S9AdhNe95-33" vertex="1">
          <mxGeometry width="50.55" height="46" as="geometry" />
        </mxCell>
        <mxCell id="j9KJ5yuXrT_S9AdhNe95-35" value="S&#39;[n]" style="shape=partialRectangle;html=1;whiteSpace=wrap;connectable=0;strokeColor=inherit;overflow=hidden;fillColor=none;top=0;left=0;bottom=0;right=0;pointerEvents=1;fontSize=16;" parent="j9KJ5yuXrT_S9AdhNe95-34" vertex="1">
          <mxGeometry width="51" height="46" as="geometry">
            <mxRectangle width="51" height="46" as="alternateBounds" />
          </mxGeometry>
        </mxCell>
        <mxCell id="j9KJ5yuXrT_S9AdhNe95-36" value="" style="shape=table;startSize=0;container=1;collapsible=0;childLayout=tableLayout;fontSize=16;" parent="1" vertex="1">
          <mxGeometry x="1905.6000000000001" y="408" width="65.78" height="46" as="geometry" />
        </mxCell>
        <mxCell id="j9KJ5yuXrT_S9AdhNe95-37" style="shape=tableRow;horizontal=0;startSize=0;swimlaneHead=0;swimlaneBody=0;strokeColor=inherit;top=0;left=0;bottom=0;right=0;collapsible=0;dropTarget=0;fillColor=none;points=[[0,0.5],[1,0.5]];portConstraint=eastwest;fontSize=16;" parent="j9KJ5yuXrT_S9AdhNe95-36" vertex="1">
          <mxGeometry width="65.78" height="46" as="geometry" />
        </mxCell>
        <mxCell id="j9KJ5yuXrT_S9AdhNe95-38" value="Item emb" style="shape=partialRectangle;html=1;whiteSpace=wrap;connectable=0;strokeColor=inherit;overflow=hidden;fillColor=none;top=0;left=0;bottom=0;right=0;pointerEvents=1;fontSize=16;" parent="j9KJ5yuXrT_S9AdhNe95-37" vertex="1">
          <mxGeometry width="66" height="46" as="geometry">
            <mxRectangle width="66" height="46" as="alternateBounds" />
          </mxGeometry>
        </mxCell>
        <mxCell id="j9KJ5yuXrT_S9AdhNe95-40" value="" style="edgeStyle=elbowEdgeStyle;elbow=horizontal;endArrow=classic;html=1;curved=0;rounded=0;endSize=8;startSize=8;exitX=1;exitY=0.5;exitDx=0;exitDy=0;entryX=0;entryY=0.5;entryDx=0;entryDy=0;" parent="1" source="ADp_H2QigFvuDZXJTlt6-20" target="j9KJ5yuXrT_S9AdhNe95-34" edge="1">
          <mxGeometry width="50" height="50" relative="1" as="geometry">
            <mxPoint x="1863.22" y="365.5" as="sourcePoint" />
            <mxPoint x="1913.22" y="315.5" as="targetPoint" />
          </mxGeometry>
        </mxCell>
        <mxCell id="j9KJ5yuXrT_S9AdhNe95-43" value="Prediction" style="html=1;shadow=0;dashed=0;align=center;verticalAlign=middle;shape=mxgraph.arrows2.arrow;dy=0.6;dx=40;notch=0;" parent="1" vertex="1">
          <mxGeometry x="1980" y="344" width="160" height="70" as="geometry" />
        </mxCell>
      </root>
    </mxGraphModel>
  </diagram>
  <diagram id="7RFqUEwSxO1rPq67albR" name="Page-2">
    <mxGraphModel dx="691" dy="446" grid="0" gridSize="10" guides="1" tooltips="1" connect="1" arrows="1" fold="1" page="0" pageScale="1" pageWidth="850" pageHeight="1100" math="0" shadow="0">
      <root>
        <mxCell id="0" />
        <mxCell id="1" parent="0" />
        <mxCell id="P3MoAnSP8n-_jJPgozV9-6" style="edgeStyle=orthogonalEdgeStyle;rounded=0;orthogonalLoop=1;jettySize=auto;html=1;entryX=0;entryY=0.5;entryDx=0;entryDy=0;" edge="1" parent="1" source="P3MoAnSP8n-_jJPgozV9-1" target="P3MoAnSP8n-_jJPgozV9-2">
          <mxGeometry relative="1" as="geometry" />
        </mxCell>
        <mxCell id="P3MoAnSP8n-_jJPgozV9-1" value="Thu thập dữ liệu" style="rounded=1;whiteSpace=wrap;html=1;fillColor=#dae8fc;strokeColor=#6c8ebf;" vertex="1" parent="1">
          <mxGeometry x="74" y="258" width="120" height="60" as="geometry" />
        </mxCell>
        <mxCell id="P3MoAnSP8n-_jJPgozV9-7" style="edgeStyle=orthogonalEdgeStyle;rounded=0;orthogonalLoop=1;jettySize=auto;html=1;entryX=0;entryY=0.5;entryDx=0;entryDy=0;" edge="1" parent="1" source="P3MoAnSP8n-_jJPgozV9-2" target="P3MoAnSP8n-_jJPgozV9-3">
          <mxGeometry relative="1" as="geometry" />
        </mxCell>
        <mxCell id="P3MoAnSP8n-_jJPgozV9-2" value="Thiết kế prompt cho LLM tạo sinh" style="rounded=1;whiteSpace=wrap;html=1;fillColor=#f8cecc;strokeColor=#b85450;" vertex="1" parent="1">
          <mxGeometry x="235" y="258" width="120" height="60" as="geometry" />
        </mxCell>
        <mxCell id="P3MoAnSP8n-_jJPgozV9-8" style="edgeStyle=orthogonalEdgeStyle;rounded=0;orthogonalLoop=1;jettySize=auto;html=1;entryX=0;entryY=0.5;entryDx=0;entryDy=0;" edge="1" parent="1" source="P3MoAnSP8n-_jJPgozV9-3" target="P3MoAnSP8n-_jJPgozV9-4">
          <mxGeometry relative="1" as="geometry" />
        </mxCell>
        <mxCell id="P3MoAnSP8n-_jJPgozV9-3" value="Tạo sinh dữ liệu" style="rounded=1;whiteSpace=wrap;html=1;fillColor=#ffe6cc;strokeColor=#d79b00;" vertex="1" parent="1">
          <mxGeometry x="396" y="258" width="120" height="60" as="geometry" />
        </mxCell>
        <mxCell id="P3MoAnSP8n-_jJPgozV9-4" value="Kiểm thử, hiệu chỉnh dữ liệu" style="rounded=1;whiteSpace=wrap;html=1;fillColor=#d5e8d4;strokeColor=#82b366;" vertex="1" parent="1">
          <mxGeometry x="557" y="258" width="120" height="60" as="geometry" />
        </mxCell>
      </root>
    </mxGraphModel>
  </diagram>
</mxfile>
